<svg xmlns="http://www.w3.org/2000/svg" version="1.1" xmlns:xlink="http://www.w3.org/1999/xlink" xmlns:svgjs="http://svgjs.com/svgjs" width="1440" height="800" preserveAspectRatio="none" viewBox="0 0 1440 800"><g mask="url(&quot;#SvgjsMask1899&quot;)" fill="none"><rect width="1440" height="800" x="0" y="0" fill="rgba(248, 236, 212, 1)"></rect><g mask="url(&quot;#SvgjsMask1901&quot;)"><path d="M70 406L98 406L126 406L154 406M42 406L70 434M-14 406L14 406L42 406L70 406L98 434" stroke="url(#SvgjsLinearGradient1900)" stroke-width="4.67"></path><path d="M91 434 a7 7 0 1 0 14 0 a7 7 0 1 0 -14 0zM147 406 a7 7 0 1 0 14 0 a7 7 0 1 0 -14 0zM63 434 a7 7 0 1 0 14 0 a7 7 0 1 0 -14 0z" fill="url(#SvgjsLinearGradient1900)"></path><path d="M406 378L434 350L462 350L490 350L518 350M602 378L630 406L658 434L686 434L714 434M322 378L350 350L378 350L406 350L434 322M378 378L406 406L434 406L462 406M686 322L714 350L742 350L770 350L798 350L826 322L854 322L882 322M182 378L210 406L238 406L266 406L294 406L322 406L350 406L378 406M574 378L602 350L630 350M-14 378L14 378L42 378L70 378L98 378L126 378L154 378L182 378L210 378L238 378L266 378L294 378L322 378L350 378L378 378L406 378L434 378L462 378L490 378L518 378L546 378L574 378L602 378L630 378L658 350L686 322L714 322L742 322L770 322L798 322" stroke="url(#SvgjsLinearGradient1900)" stroke-width="4.67"></path><path d="M791 322 a7 7 0 1 0 14 0 a7 7 0 1 0 -14 0zM511 350 a7 7 0 1 0 14 0 a7 7 0 1 0 -14 0zM707 434 a7 7 0 1 0 14 0 a7 7 0 1 0 -14 0zM427 322 a7 7 0 1 0 14 0 a7 7 0 1 0 -14 0zM455 406 a7 7 0 1 0 14 0 a7 7 0 1 0 -14 0zM875 322 a7 7 0 1 0 14 0 a7 7 0 1 0 -14 0zM371 406 a7 7 0 1 0 14 0 a7 7 0 1 0 -14 0zM623 350 a7 7 0 1 0 14 0 a7 7 0 1 0 -14 0z" fill="url(#SvgjsLinearGradient1900)"></path><path d="M-14 434L14 434" stroke="url(#SvgjsLinearGradient1900)" stroke-width="4.67"></path><path d="M7 434 a7 7 0 1 0 14 0 a7 7 0 1 0 -14 0z" fill="url(#SvgjsLinearGradient1900)"></path><path d="M126 350L154 322L182 322M-14 350L14 350L42 350L70 350L98 350L126 350L154 350L182 350" stroke="url(#SvgjsLinearGradient1900)" stroke-width="4.67"></path><path d="M175 350 a7 7 0 1 0 14 0 a7 7 0 1 0 -14 0zM175 322 a7 7 0 1 0 14 0 a7 7 0 1 0 -14 0z" fill="url(#SvgjsLinearGradient1900)"></path><path d="M154 462L182 490L210 490L238 490M98 462L126 490L154 490M70 462L98 490M-14 462L14 462L42 462L70 462L98 462L126 462L154 462L182 462L210 462L238 462L266 490L294 490L322 490L350 490" stroke="url(#SvgjsLinearGradient1900)" stroke-width="4.67"></path><path d="M343 490 a7 7 0 1 0 14 0 a7 7 0 1 0 -14 0zM231 490 a7 7 0 1 0 14 0 a7 7 0 1 0 -14 0zM147 490 a7 7 0 1 0 14 0 a7 7 0 1 0 -14 0zM91 490 a7 7 0 1 0 14 0 a7 7 0 1 0 -14 0z" fill="url(#SvgjsLinearGradient1900)"></path><path d="M490 238L518 210L546 210L574 210M294 266L322 294L350 294L378 294M182 266L210 294L238 294L266 294M126 294L154 294L182 294M518 238L546 266L574 266L602 266M-14 322L14 322L42 322L70 322L98 322L126 294L154 266L182 266L210 266L238 266L266 266L294 266L322 266L350 266L378 266L406 266L434 238L462 238L490 238L518 238L546 238" stroke="url(#SvgjsLinearGradient1900)" stroke-width="4.67"></path><path d="M539 238 a7 7 0 1 0 14 0 a7 7 0 1 0 -14 0zM567 210 a7 7 0 1 0 14 0 a7 7 0 1 0 -14 0zM371 294 a7 7 0 1 0 14 0 a7 7 0 1 0 -14 0zM259 294 a7 7 0 1 0 14 0 a7 7 0 1 0 -14 0zM175 294 a7 7 0 1 0 14 0 a7 7 0 1 0 -14 0zM595 266 a7 7 0 1 0 14 0 a7 7 0 1 0 -14 0z" fill="url(#SvgjsLinearGradient1900)"></path><path d="M630 490L658 462L686 462L714 462M490 490L518 518L546 518M518 490L546 462L574 462L602 462M14 518L42 490L70 490M714 490L742 518M574 490L602 518L630 518L658 518M434 490L462 518L490 518L518 546M-14 490L14 518L42 518L70 518L98 518L126 518L154 518L182 518L210 518L238 518L266 518L294 518L322 518L350 518L378 518L406 518L434 490L462 490L490 490L518 490L546 490L574 490L602 490L630 490L658 490L686 490L714 490L742 490" stroke="url(#SvgjsLinearGradient1900)" stroke-width="4.67"></path><path d="M735 490 a7 7 0 1 0 14 0 a7 7 0 1 0 -14 0zM707 462 a7 7 0 1 0 14 0 a7 7 0 1 0 -14 0zM539 518 a7 7 0 1 0 14 0 a7 7 0 1 0 -14 0zM595 462 a7 7 0 1 0 14 0 a7 7 0 1 0 -14 0zM63 490 a7 7 0 1 0 14 0 a7 7 0 1 0 -14 0zM735 518 a7 7 0 1 0 14 0 a7 7 0 1 0 -14 0zM651 518 a7 7 0 1 0 14 0 a7 7 0 1 0 -14 0zM511 546 a7 7 0 1 0 14 0 a7 7 0 1 0 -14 0z" fill="url(#SvgjsLinearGradient1900)"></path><path d="M70 294L98 266M42 294L70 266M14 294L42 266M-14 294L14 294L42 294L70 294L98 294" stroke="url(#SvgjsLinearGradient1900)" stroke-width="4.67"></path><path d="M91 294 a7 7 0 1 0 14 0 a7 7 0 1 0 -14 0zM91 266 a7 7 0 1 0 14 0 a7 7 0 1 0 -14 0zM63 266 a7 7 0 1 0 14 0 a7 7 0 1 0 -14 0zM35 266 a7 7 0 1 0 14 0 a7 7 0 1 0 -14 0z" fill="url(#SvgjsLinearGradient1900)"></path><path d="M378 574L406 546L434 546L462 546L490 546L518 574L546 574M182 546L210 546L238 546L266 546M322 574L350 546M294 574L322 546M462 602L490 574M-14 518L14 546L42 546L70 546L98 546L126 546L154 546L182 546L210 574L238 574L266 574L294 574L322 574L350 574L378 574L406 574L434 574L462 602L490 602L518 602L546 602" stroke="url(#SvgjsLinearGradient1900)" stroke-width="4.67"></path><path d="M539 602 a7 7 0 1 0 14 0 a7 7 0 1 0 -14 0zM539 574 a7 7 0 1 0 14 0 a7 7 0 1 0 -14 0zM259 546 a7 7 0 1 0 14 0 a7 7 0 1 0 -14 0zM343 546 a7 7 0 1 0 14 0 a7 7 0 1 0 -14 0zM315 546 a7 7 0 1 0 14 0 a7 7 0 1 0 -14 0zM483 574 a7 7 0 1 0 14 0 a7 7 0 1 0 -14 0z" fill="url(#SvgjsLinearGradient1900)"></path><path d="M322 602L350 630L378 630L406 630L434 658L462 658L490 658L518 658L546 658L574 658M98 574L126 602M574 630L602 602L630 602L658 602L686 602M42 574L70 602M602 630L630 658L658 658M294 602L322 630L350 658L378 658L406 686L434 686L462 686L490 686L518 686L546 686M-14 546L14 574L42 574L70 574L98 574L126 574L154 574L182 574L210 602L238 602L266 602L294 602L322 602L350 602L378 602L406 602L434 602L462 630L490 630L518 630L546 630L574 630L602 630L630 630" stroke="url(#SvgjsLinearGradient1900)" stroke-width="4.67"></path><path d="M623 630 a7 7 0 1 0 14 0 a7 7 0 1 0 -14 0zM567 658 a7 7 0 1 0 14 0 a7 7 0 1 0 -14 0zM119 602 a7 7 0 1 0 14 0 a7 7 0 1 0 -14 0zM679 602 a7 7 0 1 0 14 0 a7 7 0 1 0 -14 0zM63 602 a7 7 0 1 0 14 0 a7 7 0 1 0 -14 0zM651 658 a7 7 0 1 0 14 0 a7 7 0 1 0 -14 0zM539 686 a7 7 0 1 0 14 0 a7 7 0 1 0 -14 0z" fill="url(#SvgjsLinearGradient1900)"></path><path d="M462 210L490 210M-14 238L14 238L42 238L70 238L98 238L126 238L154 238L182 238L210 238L238 238L266 238L294 238L322 238L350 238L378 238L406 238L434 210L462 210L490 182L518 182" stroke="url(#SvgjsLinearGradient1900)" stroke-width="4.67"></path><path d="M511 182 a7 7 0 1 0 14 0 a7 7 0 1 0 -14 0zM483 210 a7 7 0 1 0 14 0 a7 7 0 1 0 -14 0z" fill="url(#SvgjsLinearGradient1900)"></path><path d="M154 602L182 630L210 658L238 658L266 686M42 630L70 658M98 630L126 658L154 658M-14 574L14 602L42 630L70 630L98 630L126 630L154 602L182 602L210 630L238 630L266 630L294 658" stroke="url(#SvgjsLinearGradient1900)" stroke-width="4.67"></path><path d="M287 658 a7 7 0 1 0 14 0 a7 7 0 1 0 -14 0zM259 686 a7 7 0 1 0 14 0 a7 7 0 1 0 -14 0zM63 658 a7 7 0 1 0 14 0 a7 7 0 1 0 -14 0zM147 658 a7 7 0 1 0 14 0 a7 7 0 1 0 -14 0z" fill="url(#SvgjsLinearGradient1900)"></path><path d="M490 154L518 126L546 126L574 126L602 126L630 126M42 210L70 182L98 182L126 182L154 182M182 210L210 182L238 182M378 210L406 182L434 154L462 154L490 126M294 210L322 182L350 154M-14 210L14 210L42 210L70 210L98 210L126 210L154 210L182 210L210 210L238 210L266 210L294 210L322 210L350 210L378 210L406 210L434 182L462 182L490 154L518 154L546 154L574 154" stroke="url(#SvgjsLinearGradient1900)" stroke-width="4.67"></path><path d="M567 154 a7 7 0 1 0 14 0 a7 7 0 1 0 -14 0zM623 126 a7 7 0 1 0 14 0 a7 7 0 1 0 -14 0zM147 182 a7 7 0 1 0 14 0 a7 7 0 1 0 -14 0zM231 182 a7 7 0 1 0 14 0 a7 7 0 1 0 -14 0zM483 126 a7 7 0 1 0 14 0 a7 7 0 1 0 -14 0zM343 154 a7 7 0 1 0 14 0 a7 7 0 1 0 -14 0z" fill="url(#SvgjsLinearGradient1900)"></path></g></g><defs><mask id="SvgjsMask1899"><rect width="1440" height="800" fill="#ffffff"></rect></mask><linearGradient x1="33.9768" y1="834" x2="902.0232" y2="-34" gradientUnits="userSpaceOnUse" id="SvgjsLinearGradient1900"><stop stop-color="rgba(212, 207, 165, 1)" offset="0.49"></stop><stop stop-color="rgba(162, 157, 127, 1)" offset="1"></stop></linearGradient><mask id="SvgjsMask1901"><rect width="1440" height="800" fill="white"></rect><path d="M94.5 434 a3.5 3.5 0 1 0 7 0 a3.5 3.5 0 1 0 -7 0zM150.5 406 a3.5 3.5 0 1 0 7 0 a3.5 3.5 0 1 0 -7 0zM66.5 434 a3.5 3.5 0 1 0 7 0 a3.5 3.5 0 1 0 -7 0z" fill="black"></path><path d="M794.5 322 a3.5 3.5 0 1 0 7 0 a3.5 3.5 0 1 0 -7 0zM514.5 350 a3.5 3.5 0 1 0 7 0 a3.5 3.5 0 1 0 -7 0zM710.5 434 a3.5 3.5 0 1 0 7 0 a3.5 3.5 0 1 0 -7 0zM430.5 322 a3.5 3.5 0 1 0 7 0 a3.5 3.5 0 1 0 -7 0zM458.5 406 a3.5 3.5 0 1 0 7 0 a3.5 3.5 0 1 0 -7 0zM878.5 322 a3.5 3.5 0 1 0 7 0 a3.5 3.5 0 1 0 -7 0zM374.5 406 a3.5 3.5 0 1 0 7 0 a3.5 3.5 0 1 0 -7 0zM626.5 350 a3.5 3.5 0 1 0 7 0 a3.5 3.5 0 1 0 -7 0z" fill="black"></path><path d="M10.5 434 a3.5 3.5 0 1 0 7 0 a3.5 3.5 0 1 0 -7 0z" fill="black"></path><path d="M178.5 350 a3.5 3.5 0 1 0 7 0 a3.5 3.5 0 1 0 -7 0zM178.5 322 a3.5 3.5 0 1 0 7 0 a3.5 3.5 0 1 0 -7 0z" fill="black"></path><path d="M346.5 490 a3.5 3.5 0 1 0 7 0 a3.5 3.5 0 1 0 -7 0zM234.5 490 a3.5 3.5 0 1 0 7 0 a3.5 3.5 0 1 0 -7 0zM150.5 490 a3.5 3.5 0 1 0 7 0 a3.5 3.5 0 1 0 -7 0zM94.5 490 a3.5 3.5 0 1 0 7 0 a3.5 3.5 0 1 0 -7 0z" fill="black"></path><path d="M542.5 238 a3.5 3.5 0 1 0 7 0 a3.5 3.5 0 1 0 -7 0zM570.5 210 a3.5 3.5 0 1 0 7 0 a3.5 3.5 0 1 0 -7 0zM374.5 294 a3.5 3.5 0 1 0 7 0 a3.5 3.5 0 1 0 -7 0zM262.5 294 a3.5 3.5 0 1 0 7 0 a3.5 3.5 0 1 0 -7 0zM178.5 294 a3.5 3.5 0 1 0 7 0 a3.5 3.5 0 1 0 -7 0zM598.5 266 a3.5 3.5 0 1 0 7 0 a3.5 3.5 0 1 0 -7 0z" fill="black"></path><path d="M738.5 490 a3.5 3.5 0 1 0 7 0 a3.5 3.5 0 1 0 -7 0zM710.5 462 a3.5 3.5 0 1 0 7 0 a3.5 3.5 0 1 0 -7 0zM542.5 518 a3.5 3.5 0 1 0 7 0 a3.5 3.5 0 1 0 -7 0zM598.5 462 a3.5 3.5 0 1 0 7 0 a3.5 3.5 0 1 0 -7 0zM66.5 490 a3.5 3.5 0 1 0 7 0 a3.5 3.5 0 1 0 -7 0zM738.5 518 a3.5 3.5 0 1 0 7 0 a3.5 3.5 0 1 0 -7 0zM654.5 518 a3.5 3.5 0 1 0 7 0 a3.5 3.5 0 1 0 -7 0zM514.5 546 a3.5 3.5 0 1 0 7 0 a3.5 3.5 0 1 0 -7 0z" fill="black"></path><path d="M94.5 294 a3.5 3.5 0 1 0 7 0 a3.5 3.5 0 1 0 -7 0zM94.5 266 a3.5 3.5 0 1 0 7 0 a3.5 3.5 0 1 0 -7 0zM66.5 266 a3.5 3.5 0 1 0 7 0 a3.5 3.5 0 1 0 -7 0zM38.5 266 a3.5 3.5 0 1 0 7 0 a3.5 3.5 0 1 0 -7 0z" fill="black"></path><path d="M542.5 602 a3.5 3.5 0 1 0 7 0 a3.5 3.5 0 1 0 -7 0zM542.5 574 a3.5 3.5 0 1 0 7 0 a3.5 3.5 0 1 0 -7 0zM262.5 546 a3.5 3.5 0 1 0 7 0 a3.5 3.5 0 1 0 -7 0zM346.5 546 a3.5 3.5 0 1 0 7 0 a3.5 3.5 0 1 0 -7 0zM318.5 546 a3.5 3.5 0 1 0 7 0 a3.5 3.5 0 1 0 -7 0zM486.5 574 a3.5 3.5 0 1 0 7 0 a3.5 3.5 0 1 0 -7 0z" fill="black"></path><path d="M626.5 630 a3.5 3.5 0 1 0 7 0 a3.5 3.5 0 1 0 -7 0zM570.5 658 a3.5 3.5 0 1 0 7 0 a3.5 3.5 0 1 0 -7 0zM122.5 602 a3.5 3.5 0 1 0 7 0 a3.5 3.5 0 1 0 -7 0zM682.5 602 a3.5 3.5 0 1 0 7 0 a3.5 3.5 0 1 0 -7 0zM66.5 602 a3.5 3.5 0 1 0 7 0 a3.5 3.5 0 1 0 -7 0zM654.5 658 a3.5 3.5 0 1 0 7 0 a3.5 3.5 0 1 0 -7 0zM542.5 686 a3.5 3.5 0 1 0 7 0 a3.5 3.5 0 1 0 -7 0z" fill="black"></path><path d="M514.5 182 a3.5 3.5 0 1 0 7 0 a3.5 3.5 0 1 0 -7 0zM486.5 210 a3.5 3.5 0 1 0 7 0 a3.5 3.5 0 1 0 -7 0z" fill="black"></path><path d="M290.5 658 a3.5 3.5 0 1 0 7 0 a3.5 3.5 0 1 0 -7 0zM262.5 686 a3.5 3.5 0 1 0 7 0 a3.5 3.5 0 1 0 -7 0zM66.5 658 a3.5 3.5 0 1 0 7 0 a3.5 3.5 0 1 0 -7 0zM150.5 658 a3.5 3.5 0 1 0 7 0 a3.5 3.5 0 1 0 -7 0z" fill="black"></path><path d="M570.5 154 a3.5 3.5 0 1 0 7 0 a3.5 3.5 0 1 0 -7 0zM626.5 126 a3.5 3.5 0 1 0 7 0 a3.5 3.5 0 1 0 -7 0zM150.5 182 a3.5 3.5 0 1 0 7 0 a3.5 3.5 0 1 0 -7 0zM234.5 182 a3.5 3.5 0 1 0 7 0 a3.5 3.5 0 1 0 -7 0zM486.5 126 a3.5 3.5 0 1 0 7 0 a3.5 3.5 0 1 0 -7 0zM346.5 154 a3.5 3.5 0 1 0 7 0 a3.5 3.5 0 1 0 -7 0z" fill="black"></path></mask></defs></svg>